<?xml version="1.0" encoding="iso-8859-1"?>
<!-- Generator: Adobe Illustrator 16.0.0, SVG Export Plug-In . SVG Version: 6.00 Build 0)  -->
<!DOCTYPE svg PUBLIC "-//W3C//DTD SVG 1.1//EN" "http://www.w3.org/Graphics/SVG/1.1/DTD/svg11.dtd">
<svg version="1.1" id="Capa_1" xmlns="http://www.w3.org/2000/svg" xmlns:xlink="http://www.w3.org/1999/xlink" x="0px" y="0px"
	 width="403.805px" height="403.805px" viewBox="0 0 403.805 403.805" style="enable-background:new 0 0 403.805 403.805;"
	 xml:space="preserve">
<g>
	<g>
		<g>
			<path d="M387.205,181.03c-22.133-22.133-58.146-22.133-80.275,0l-4.207,4.207l80.275,80.276l4.207-4.207
				C409.338,239.174,409.338,203.162,387.205,181.03z"/>
			<path d="M304.529,275.459c-3.246,3.244-8.506,3.244-11.752,0c-3.246-3.246-3.246-8.508,0-11.752l31.188-31.188l-34.262-34.262
				l-39.547,39.546c-1.604,1.604-2.631,3.698-2.914,5.95l-9.5,75.313c-0.396,3.135,0.681,6.276,2.914,8.512
				c2.235,2.234,5.377,3.312,8.514,2.915l75.313-9.5c2.252-0.284,4.346-1.31,5.95-2.915l39.547-39.547l-34.262-34.262
				L304.529,275.459z M258.967,312.924c-1.002,0.125-2.008-0.219-2.723-0.934c-0.717-0.715-1.062-1.72-0.935-2.723l3.039-24.101
				l24.716,24.715L258.967,312.924z"/>
			<path d="M319.748,344.363v15.494H126.44V43.947h193.308v109.978c9.283-4.506,19.443-7.104,30-7.577V33.947
				c0-11.046-8.953-20-20-20h-276c-11.045,0-20,8.954-20,20v48.956H19c-10.477,0-19,8.523-19,18.999s8.523,18.999,19,18.999h14.748
				v62.002H19c-10.477,0-19,8.523-19,18.999c0,10.477,8.523,18.999,19,18.999h14.748v62.002H19c-10.477,0-19,8.521-19,18.999
				c0,10.477,8.523,18.999,19,18.999h14.748v48.956c0,11.046,8.955,20,20,20h276c11.047,0,20-8.954,20-20v-34.861
				c-4.582,4.172-10.4,6.896-16.564,7.672L319.748,344.363z M94.248,359.857h-30.5v-38.956h4.75
				c10.477,0,18.999-8.522,18.999-18.999c0-10.478-8.522-18.999-18.999-18.999h-4.75v-62.002h4.75
				c10.477,0,18.999-8.522,18.999-18.999c0-10.476-8.522-18.999-18.999-18.999h-4.75v-62.002h4.75
				c10.477,0,18.999-8.523,18.999-18.999s-8.522-18.999-18.999-18.999h-4.75V43.947h30.5V359.857L94.248,359.857z"/>
		</g>
	</g>
</g>
<g>
</g>
<g>
</g>
<g>
</g>
<g>
</g>
<g>
</g>
<g>
</g>
<g>
</g>
<g>
</g>
<g>
</g>
<g>
</g>
<g>
</g>
<g>
</g>
<g>
</g>
<g>
</g>
<g>
</g>
</svg>
